<?xml version="1.0" encoding="UTF-8"?>
<svg version="1.1" viewBox="0 0 256 256" xmlns="http://www.w3.org/2000/svg">
 <path d="m133.33 138.67c0-2.9451-2.3877-5.3333-5.3333-5.3333-14.728 0-26.667 11.939-26.667 26.667 0 11.782 9.5512 21.333 21.333 21.333 8.8366 0 16-7.1627 16-16 0-5.8912-4.7756-10.667-10.667-10.667-2.9455 0-5.3333 2.3883-5.3333 5.3333m37.333-58.667c8.8366 0 16-7.1637 16-16s-7.1634-16-16-16c-8.8366 0-16 7.1637-16 16s7.1634 16 16 16h37.333v-16c0-18.667-13.333-37.333-37.333-37.333h-37.333v21.333c-41.237 0-74.667 33.429-74.667 74.667 0 35.346 28.654 64 64 64 26.51 0 48-21.49 48-48 0-2.9451-2.3877-5.3333-5.3333-5.3333m-32-69.333c0 18.667 13.333 37.333 37.333 37.333h21.333c2.9455 0 5.3333-2.3872 5.3333-5.3333" fill="none" stroke="#709772" stroke-dashoffset="10" stroke-width="10.683"/>
</svg>
